<svg width="32" height="14" viewBox="0 0 32 14" fill="none" xmlns="http://www.w3.org/2000/svg">
<path fill-rule="evenodd" clip-rule="evenodd" d="M0 10.8378L6.8633 10.8378C9.58223 10.8378 12.1662 9.74583 14.0544 7.84156C14.0549 7.84218 14.0553 7.84279 14.0558 7.8434C16.0366 10.2889 19.0228 11.6997 22.1697 11.6768L27.9248 11.6348L25.0475 12.8122L25.4262 13.7377L30.7024 11.5786L31.6508 11.1905L30.7612 10.6818L26.6715 8.34319L26.1751 9.21128L28.6551 10.6294L22.1624 10.6768C19.3197 10.6975 16.6222 9.42309 14.8329 7.21401C14.7988 7.17191 14.7644 7.13012 14.7297 7.08863C14.8049 6.99593 14.8786 6.90172 14.9507 6.80602C16.622 4.58856 19.2118 3.25252 21.9875 3.17586L28.5823 2.99373L26.1534 4.49756L26.6798 5.3478L30.6854 2.86785L31.5567 2.32842L30.5953 1.97365L25.2469 0L24.9007 0.938158L27.8174 2.01447L21.9599 2.17624C18.8801 2.2613 16.0065 3.74372 14.1521 6.20413C14.1164 6.25156 14.0802 6.29858 14.0436 6.34519C12.1206 4.45592 9.52124 3.38035 6.79454 3.38035L0 3.38036V4.38036L6.79454 4.38035C9.27664 4.38035 11.642 5.36699 13.3829 7.0982C11.6779 8.83866 9.33236 9.83777 6.8633 9.83777L0 9.83777V10.8378Z" fill="#AAAAAA"/>
</svg>
