<svg width="36" height="30" viewBox="0 0 23 17" fill="none" xmlns="http://www.w3.org/2000/svg">
<path fill-rule="evenodd" clip-rule="evenodd" d="M0 8.25C0 3.69365 3.69365 0 8.25 0H19.5V1H8.25C4.24594 1 1 4.24594 1 8.25C1 12.2541 4.24594 15.5 8.25 15.5H10C14.9005 15.5 18.8863 11.5833 18.9976 6.7095L16.8536 8.85355L16.1464 8.14645L19.1464 5.14645L19.5 4.79289L19.8536 5.14645L22.8536 8.14645L22.1464 8.85355L19.9979 6.70505C19.8888 12.1332 15.4543 16.5 10 16.5H8.25C3.69365 16.5 0 12.8063 0 8.25Z" fill="#AAAAAA"/>
</svg>
