<svg width="36" height="30" viewBox="0 0 24 17" fill="none" xmlns="http://www.w3.org/2000/svg">
<path fill-rule="evenodd" clip-rule="evenodd" d="M8.75 0.5C4.19365 0.5 0.5 4.19365 0.5 8.75C0.5 13.3063 4.19365 17 8.75 17H10.5C15.9543 17 20.3888 12.6332 20.4979 7.20505L22.6464 9.35355L23.3536 8.64645L20.3536 5.64645L20 5.29289L19.6464 5.64645L16.6464 8.64645L17.3536 9.35355L19.4976 7.2095C19.3863 12.0833 15.4005 16 10.5 16H8.75C4.74594 16 1.5 12.7541 1.5 8.75C1.5 4.74594 4.74594 1.5 8.75 1.5H20V0.5H8.75ZM10.0528 3.77639L8.55279 6.77639L9.44721 7.22361L10 6.11803V12H11V4L10.0528 3.77639Z" fill="#AAAAAA"/>
</svg>
